# AST/ASF file generated using VICON BodyLanguage
# -----------------------------------------------
:version 1.10
:name VICON
:units
  mass 1.0
  length 0.45
  angle deg
:documentation
   .ast/.asf automatically generated from VICON data using
   VICON BodyBuilder and BodyLanguage model FoxedUp or BRILLIANT.MOD
:root
   order TX TY TZ RX RY RZ
   axis XYZ
   position 0 0 0  
   orientation 0 0 0 
:bonedata
  begin
     id 1 
     name lhipjoint
     direction 0.645893 -0.654526 0.392961 
     length 2.38111 
     axis 0 0 0  XYZ
  end
  begin
     id 2 
     name lfemur
     direction 0.34202 -0.939693 0  
     length 6.6822  
     axis 0 0 20  XYZ
    dof rx ry rz
    limits (-160.0 20.0)
           (-70.0 70.0)
           (-60.0 70.0)
  end
  begin
     id 3 
     name ltibia
     direction 0.34202 -0.939693 0   
     length 6.93904   
     axis 0 0 20   XYZ
    dof rx
    limits (-10.0 170.0)
  end
  begin
     id 4 
     name lfoot
     direction 0.0694967 -0.190941 0.979138   
     length 2.13616   
     axis -90 7.62852e-016 20   XYZ
    dof rx rz
    limits (-45.0 90.0)
           (-70.0 20.0)
  end
  begin
     id 5 
     name ltoes
     direction 1.535e-011 -4.2202e-011 1   
     length 1.07536   
     axis -90 7.62852e-016 20   XYZ
    dof rx
    limits (-90.0 20.0)
  end
  begin
     id 6 
     name rhipjoint
     direction -0.700219 -0.612087 0.367481   
     length 2.54621  
     axis 0 0 0  XYZ 
  end
  begin
     id 7 
     name rfemur
     direction -0.34202 -0.939693 0   
     length 6.55353   
     axis 0 0 -20   XYZ
    dof rx ry rz
    limits (-160.0 20.0)
           (-70.0 70.0)
           (-70.0 60.0)
  end
  begin
     id 8 
     name rtibia
     direction -0.34202 -0.939693 0   
     length 6.8736   
     axis 0 0 -20   XYZ
    dof rx
    limits (-10.0 170.0)
 end
 begin
     id 9 
     name rfoot
     direction -0.0679995 -0.186827 0.980037   
     length 2.1218  
     axis -90 -7.62852e-016 -20   XYZ
    dof rx rz
    limits (-45.0 90.0)
           (-20.0 70.0)
  end
  begin
     id 10 
     name rtoes
     direction -1.53589e-011 -4.21772e-011 1   
     length 1.06864   
     axis -90 -7.62852e-016 -20   XYZ
    dof rx
    limits (-90.0 20.0)
  end
  begin
     id 11 
     name lowerback
     direction -0.0416607 0.996347 -0.0745409   
     length 2.12205   
     axis 0 0 0   XYZ
    dof rx ry rz
    limits (-20.0 45.0)
           (-30.0 30.0)
           (-30.0 30.0)
  end
  begin
     id 12 
     name upperback
     direction -0.000153993 0.999276 -0.0380568   
     length 2.12759   
     axis 0 0 0   XYZ
    dof rx ry rz
    limits (-20.0 45.0)
           (-30.0 30.0)
           (-30.0 30.0)
  end
  begin
     id 13 
     name thorax
     direction 0.0187671 0.999821 -0.00241421   
     length 2.13704   
     axis 0 0 0   XYZ
    dof rx ry rz
    limits (-20.0 45.0)
           (-30.0 30.0)
           (-30.0 30.0)
  end
  begin
     id 14 
     name lowerneck
     direction 0.0268157 0.964865 0.261374   
     length 1.65253   
     axis 0 0 0   XYZ
    dof rx ry rz
    limits (-20.0 45.0)
           (-30.0 30.0)
           (-30.0 30.0)
  end
  begin
     id 15 
     name upperneck
     direction 0.00263774 0.939908 -0.341418   
     length 1.72375   
     axis 0 0 0   XYZ
    dof rx ry rz
    limits (-20.0 45.0)
           (-30.0 30.0)
           (-30.0 30.0)
  end
  begin
     id 16
     name head
     direction -0.00526001 0.989001 -0.147818  
     length 1.74878  
     axis 0 0 0   XYZ
    dof rx ry rz
    limits (-20.0 45.0)
           (-30.0 30.0)
           (-30.0 30.0)
  end
  begin
     id 17 
     name lclavicle
     direction 0.881214 0.461162 -0.103884  
     length 3.25108  
     axis 0 0 0   XYZ
    dof ry rz
    limits (-20.0 10.0)
           (0.0 20.0)
  end
  begin
     id 18 
     name lhumerus
     direction 1 -4.4899e-011 3.38092e-027   
     length 4.87408   
     axis 180 -30 -90   XYZ
    dof rx ry rz
    limits (-60.0 90.0)
           (-90.0 90.0)
           (-90.0 90.0)
  end
  begin
     id 19
     name lradius
     direction 1 -4.48931e-011 9.96288e-027   
     length 2.76729   
     axis 180 -30 -90   XYZ
    dof rx
    limits (-10.0 170.0)
  end
  begin
     id 20
     name lwrist
     direction 1 -4.4896e-011 1.50617e-026   
     length 1.38364   
     axis -9.31234e-015 90 90   XYZ
    dof ry
    limits (-180.0 0.0)
 end
  begin
     id 21 
     name lhand
     direction 1 -4.49038e-011 3.01286e-026   
     length 0.98922   
     axis -1.92217e-014 90 90   XYZ
    dof rx rz
    limits (-90.0 90.0)
           (-45.0 45.0)
  end
  begin
     id 22 
     name lfingers
     direction 1 -4.49051e-011 6.02588e-026   
     length 0.797535   
     axis -3.84436e-014 90 90   XYZ
    dof rx
    limits (0.0 90.0)
  end
  begin
     id 23
     name lthumb
     direction 0.707107 -6.34901e-011 0.707107   
     length 1.14511   
     axis -90 45 2.19363e-014   XYZ
    dof rx rz
    limits (-45.0 45.0)
           (-45.0 45.0)
  end
  begin
     id 24 
     name rclavicle
     direction -0.893894 0.441652 -0.0767889   
     length 3.29361  
     axis 0 0 0   XYZ 
    dof ry rz
    limits (-10.0 20.0)
           (-20.0 0.0)
  end
  begin
     id 25 
     name rhumerus
     direction -1 -4.48945e-011 8.0491e-028  
     length 4.71404   
     axis 180 30 90   XYZ
    dof rx ry rz
    limits (-90.0 60.0)
           (-90.0 90.0)
           (-90.0 90.0)
  end
  begin
     id 26 
     name rradius
     direction -1 -4.48986e-011 9.27795e-027   
     length 2.83468   
     axis 180 30 90   XYZ
    dof rx
    limits (-10.0 170.0)
  end
  begin
     id 27 
     name rwrist
     direction -1 -4.49029e-011 1.5064e-026   
     length 1.41734   
     axis -9.31234e-015 -90 -90   XYZ
    dof ry
    limits (-180.0 0.0)
  end
  begin
     id 28
     name rhand
     direction -1 -4.48857e-011 3.01165e-026   
     length 0.868195   
     axis -1.92217e-014 -90 -90   XYZ
    dof rx rz
    limits (-90.0 90.0)
           (-45.0 45.0)
  end
  begin
     id 29
     name rfingers
     direction -1 -4.49048e-011 6.02585e-026   
     length 0.699961   
     axis -3.84436e-014 -90 -90   XYZ
    dof rx
    limits (0.0 90.0)
  end
  begin
     id 30
     name rthumb
     direction -0.707107 -6.34854e-011 0.707107   
     length 1.00501   
     axis -90 -45 -2.19363e-014   XYZ
    dof rx rz
    limits (-45.0 45.0)
           (-45.0 45.0)
  end
:hierarchy
  begin
    root lhipjoint rhipjoint lowerback
    lhipjoint lfemur
    lfemur ltibia
    ltibia lfoot
    lfoot ltoes
    rhipjoint rfemur
    rfemur rtibia
    rtibia rfoot
    rfoot rtoes
    lowerback upperback
    upperback thorax
    thorax lowerneck lclavicle rclavicle
    lowerneck upperneck
    upperneck head
    lclavicle lhumerus
    lhumerus lradius
    lradius lwrist
    lwrist lhand lthumb
    lhand lfingers
    rclavicle rhumerus
    rhumerus rradius
    rradius rwrist
    rwrist rhand rthumb
    rhand rfingers
  end

#!OML:ASF H:\ManfredObstacles\Project 1\Capture day 2\Session 1\male.ASF
:FULLY-SPECIFIED
:DEGREES
133
root 2.57233 7.27848 20.7187 -170.505 -17.4029 182.329
lowerback 48.7106 6.92417 -2.29991
upperback 13.4479 1.69748 -0.993703
thorax -5.37012 -1.29529 -0.468554
lowerneck -33.3234 -7.56624 -5.95439
upperneck 21.3081 -11.3367 11.6482
head 13.8173 -3.7783 3.19133
rclavicle 9.93923e-015 -2.78299e-014
rhumerus -4.51253 28.4447 -80.5653
rradius 34.8829
rwrist 31.7373
rhand -2.52218 -5.40189
rfingers 7.12502
rthumb 23.1725 -34.0281
lclavicle 9.93923e-015 -2.78299e-014
lhumerus -0.290412 -29.9038 71.5461
lradius 42.3151
lwrist -37.2348
lhand -21.3295 9.37288
lfingers 7.12502
lthumb 5.05617 39.2926
rfemur -97.1118 11.8427 30.9743
rtibia 140.097
rfoot -45.9563 -38.3274
rtoes -12.0833
lfemur -102.443 24.2032 -27.0195
ltibia 143.266
lfoot -32.3237 28.2975
ltoes -11.9375
134
root 2.56743 7.19161 20.6799 -170.53 -17.2364 182.204
lowerback 48.7435 6.96208 -2.2932
upperback 13.5355 1.70029 -0.982344
thorax -5.27827 -1.31163 -0.461589
lowerneck -33.2704 -7.52545 -5.89062
upperneck 21.3108 -11.3045 11.6191
head 13.7989 -3.7651 3.17713
rclavicle -5.56597e-015 8.70677e-014
rhumerus -5.3689 29.6381 -80.7426
rradius 35.525
rwrist 31.5328
rhand -3.69909 -6.30202
rfingers 7.12502
rthumb 22.0429 -35.0658
lclavicle -5.56597e-015 8.70677e-014
lhumerus -1.10686 -30.3017 71.7377
lradius 43.0408
lwrist -36.7101
lhand -22.2134 9.96512
lfingers 7.12502
lthumb 4.20272 39.9034
rfemur -97.4836 12.3824 30.9644
rtibia 140.988
rfoot -46.2695 -38.5725
rtoes -12.2852
lfemur -102.646 24.3609 -26.917
ltibia 144.123
lfoot -32.3757 28.8131
ltoes -12.1494
135
root 2.56209 7.10867 20.6412 -170.576 -17.0483 182.096
lowerback 48.7879 7.01382 -2.28126
upperback 13.6215 1.71934 -0.969224
thorax -5.18957 -1.32129 -0.461654
lowerneck -33.2788 -7.49275 -5.81988
upperneck 21.3435 -11.2836 11.576
head 13.8037 -3.75455 3.15368
rclavicle -1.51076e-014 1.64991e-014
rhumerus -6.29648 30.519 -80.9868
rradius 36.257
rwrist 31.4879
rhand -4.8873 -7.18852
rfingers 7.12502
rthumb 20.9017 -36.0825
lclavicle -1.51076e-014 1.64991e-014
lhumerus -1.92624 -30.6308 71.9452
lradius 43.8401
lwrist -36.0497
lhand -23.0438 10.4758
lfingers 7.12502
lthumb 3.40078 40.4284
rfemur -97.8083 13.0114 30.9536
rtibia 141.847
rfoot -46.555 -38.8588
rtoes -12.5269
lfemur -102.784 24.5578 -26.7662
ltibia 144.948
lfoot -32.4478 29.3126
ltoes -12.3777
136
root 2.55656 7.0301 20.6025 -170.648 -16.8185 181.997
lowerback 48.8523 7.09378 -2.29982
upperback 13.7042 1.75291 -0.943894
thorax -5.10807 -1.32792 -0.440324
lowerneck -33.3942 -7.46922 -5.77251
upperneck 21.4501 -11.261 11.5088
head 13.858 -3.74146 3.1255
rclavicle 3.57812e-014 2.06736e-014
rhumerus -7.25573 31.0963 -81.2616
rradius 37.0616
rwrist 31.5748
rhand -5.97491 -7.92418
rfingers 7.12502
rthumb 19.8565 -36.9298
lclavicle 3.57812e-014 2.06736e-014
lhumerus -2.75691 -30.8575 72.1759
lradius 44.7001
lwrist -35.3413
lhand -23.8234 10.8979
lfingers 7.12502
lthumb 2.64794 40.8612
rfemur -98.0718 13.7577 30.9263
rtibia 142.665
rfoot -46.7945 -39.2009
rtoes -12.8609
lfemur -102.836 24.8206 -26.5576
ltibia 145.742
lfoot -32.5714 29.7628
ltoes -12.6258
137
root 2.55065 6.95511 20.5641 -170.728 -16.5755 181.911
lowerback 48.9063 7.17507 -2.33619
upperback 13.7864 1.78075 -0.908051
thorax -5.02609 -1.33881 -0.397151
lowerneck -33.5578 -7.44164 -5.74044
upperneck 21.5832 -11.2168 11.4149
head 13.9284 -3.72118 3.09423
rclavicle -3.97569e-016 -9.06458e-014
rhumerus -8.20611 31.4077 -81.549
rradius 37.9024
rwrist 31.7431
rhand -6.99132 -8.4465
rfingers 7.12502
rthumb 18.8792 -37.5503
lclavicle -3.97569e-016 -9.06458e-014
lhumerus -3.601 -30.9928 72.4175
lradius 45.6153
lwrist -34.616
lhand -24.5388 11.2694
lfingers 7.12502
lthumb 1.95704 41.2401
rfemur -98.2985 14.5807 30.8873
rtibia 143.448
rfoot -47.0132 -39.5698
rtoes -13.2799
lfemur -102.857 25.1125 -26.3044
ltibia 146.507
lfoot -32.6782 30.1765
ltoes -12.9004
138
root 2.54457 6.8836 20.5257 -170.808 -16.3142 181.831
lowerback 48.9431 7.26072 -2.38815
upperback 13.8682 1.80769 -0.874154
thorax -4.94247 -1.35042 -0.348387
lowerneck -33.7646 -7.41461 -5.718
upperneck 21.7411 -11.1659 11.3103
head 14.0163 -3.69793 3.06186
rclavicle 1.19271e-014 1.45113e-014
rhumerus -9.13252 31.4995 -81.8437
rradius 38.767
rwrist 31.8755
rhand -7.9127 -8.75131
rfingers 7.12502
rthumb 17.9928 -37.939
lclavicle 1.19271e-014 1.45113e-014
lhumerus -4.44342 -31.0736 72.6406
lradius 46.5665
lwrist -33.9535
lhand -25.2063 11.6194
lfingers 7.12502
lthumb 1.31229 41.5951
rfemur -98.4047 14.6058 31.1947
rtibia 144.194
rfoot -47.1529 -39.6042
rtoes -13.7927
lfemur -102.848 25.4274 -25.9911
ltibia 147.251
lfoot -32.7808 30.529
ltoes -13.1796
139
root 2.53816 6.8162 20.488 -170.884 -16.0496 181.758
lowerback 48.9611 7.34012 -2.43224
upperback 13.9499 1.83366 -0.845312
thorax -4.85609 -1.36118 -0.308188
lowerneck -33.8972 -7.38964 -5.71245
upperneck 21.8466 -11.111 11.2233
head 14.0709 -3.67683 3.03972
rclavicle 1.55052e-014 -2.78299e-015
rhumerus -10.0287 31.3961 -82.1385
rradius 39.6299
rwrist 31.9262
rhand -8.7794 -8.83376
rfingers 7.12502
rthumb 17.1588 -38.0961
lclavicle 1.55052e-014 -2.78299e-015
lhumerus -5.2597 -31.1496 72.8399
lradius 47.5324
lwrist -33.3119
lhand -25.8601 11.9811
lfingers 7.12502
lthumb 0.680907 41.9597
rfemur -98.502 14.629 31.4942
rtibia 144.903
rfoot -47.2274 -39.6582
rtoes -14.4012
lfemur -102.832 25.7672 -25.6464
ltibia 147.965
lfoot -32.8289 30.8366
ltoes -13.4584
140
root 2.53141 6.75285 20.4507 -170.954 -15.796 181.682
lowerback 48.9624 7.40443 -2.46675
upperback 14.0302 1.84964 -0.823056
thorax -4.76876 -1.37468 -0.275427
lowerneck -33.9712 -7.36107 -5.71454
upperneck 21.9258 -11.0506 11.149
head 14.1049 -3.65559 3.02512
rclavicle 8.74653e-015 2.46493e-014
rhumerus -10.8968 31.211 -82.42
rradius 40.4916
rwrist 31.812
rhand -9.61382 -8.7488
rfingers 7.12502
rthumb 16.3555 -38.0792
lclavicle 8.74653e-015 2.46493e-014
lhumerus -6.05064 -31.2148 73.0153
lradius 48.5113
lwrist -32.7361
lhand -26.5018 12.3821
lfingers 7.12502
lthumb 0.0610781 42.3619
rfemur -98.6016 14.6336 31.7727
rtibia 145.579
rfoot -47.2173 -39.7483
rtoes -15.0933
lfemur -102.811 26.1024 -25.2784
ltibia 148.648
lfoot -32.8244 31.0874
ltoes -13.707
141
root 2.52424 6.69426 20.4141 -171.016 -15.5591 181.597
lowerback 48.9569 7.45231 -2.48083
upperback 14.1072 1.85869 -0.809659
thorax -4.68358 -1.38881 -0.258822
lowerneck -33.9884 -7.33819 -5.72995
upperneck 21.9749 -10.9983 11.0989
head 14.1196 -3.63892 3.02039
rclavicle 3.89618e-014 5.38706e-014
rhumerus -11.7398 30.9755 -82.6839
rradius 41.342
rwrist 31.5299
rhand -10.4785 -8.54085
rfingers 7.12502
rthumb 15.5228 -37.9378
lclavicle 3.89618e-014 5.38706e-014
lhumerus -6.79782 -31.2917 73.1586
lradius 49.5071
lwrist -32.2004
lhand -27.1336 12.8027
lfingers 7.12502
lthumb -0.54915 42.7818
rfemur -98.7069 14.6146 32.0296
rtibia 146.226
rfoot -47.1574 -39.8483
rtoes -15.8149
lfemur -102.776 26.4227 -24.8985
ltibia 149.296
lfoot -32.776 31.2833
ltoes -13.9141
142
root 2.51689 6.64146 20.3784 -171.089 -15.3154 181.505
lowerback 48.9706 7.4939 -2.476
upperback 14.1803 1.86422 -0.817949
thorax -4.60442 -1.40305 -0.272857
lowerneck -33.9667 -7.30418 -5.70767
upperneck 21.9972 -10.9456 11.0418
head 14.113 -3.6223 3.00645
rclavicle -1.39149e-014 4.23411e-014
rhumerus -12.5648 30.7368 -82.941
rradius 42.1866
rwrist 31.133
rhand -11.398 -8.26805
rfingers 7.12502
rthumb 14.6371 -37.7315
lclavicle -1.39149e-014 4.23411e-014
lhumerus -7.48849 -31.3693 73.2443
lradius 50.5306
lwrist -31.7344
lhand -27.7302 13.2309
lfingers 7.12502
lthumb -1.12537 43.2077
rfemur -98.7906 14.5901 32.2631
rtibia 146.834
rfoot -47.0491 -39.9391
rtoes -16.5072
lfemur -102.678 26.7546 -24.496
ltibia 149.897
lfoot -32.744 31.4223
ltoes -14.1138
143
root 2.50996 6.59529 20.3437 -171.193 -15.0437 181.42
lowerback 49.0377 7.55063 -2.45295
upperback 14.2458 1.88523 -0.845554
thorax -4.53999 -1.41033 -0.322297
lowerneck -33.9629 -7.27498 -5.65051
upperneck 22.0269 -10.918 10.9845
head 14.1135 -3.61262 2.98087
rclavicle 4.65156e-014 -2.98177e-014
rhumerus -13.3722 30.5197 -83.1943
rradius 43.0252
rwrist 30.6765
rhand -12.41 -8.00739
rfingers 7.12502
rthumb 13.6619 -37.539
lclavicle 4.65156e-014 -2.98177e-014
lhumerus -8.08538 -31.4573 73.2534
lradius 51.5722
lwrist -31.3382
lhand -28.2659 13.6189
lfingers 7.12502
lthumb -1.64276 43.5923
rfemur -98.8163 14.5806 32.493
rtibia 147.381
rfoot -46.9014 -40.017
rtoes -17.1495
lfemur -102.48 27.1239 -24.0451
ltibia 150.446
lfoot -32.7549 31.5185
ltoes -14.3106
